<svg width="100" height="100" viewBox="0 0 100 100" fill="none" xmlns="http://www.w3.org/2000/svg">
  <rect width="100" height="100" rx="12" fill="white" fill-opacity="0.2"/>
  <rect x="30" y="20" width="40" height="60" rx="8" fill="white" fill-opacity="0.9"/>
  <rect x="35" y="25" width="30" height="20" rx="4" fill="#8E24AA"/>
  <rect x="37" y="50" width="8" height="3" rx="1.5" fill="#8E24AA" fill-opacity="0.7"/>
  <rect x="37" y="55" width="12" height="3" rx="1.5" fill="#8E24AA" fill-opacity="0.7"/>
  <rect x="37" y="60" width="6" height="3" rx="1.5" fill="#8E24AA" fill-opacity="0.7"/>
  <circle cx="60" cy="60" r="3" fill="#5E35B1"/>
  <circle cx="60" cy="67" r="2" fill="#5E35B1" fill-opacity="0.7"/>
  <path d="M20 35C20 35 25 30 35 35C45 40 55 30 65 35C75 40 80 35 80 35" stroke="white" stroke-width="3" stroke-linecap="round" fill="none"/>
  <circle cx="25" cy="37" r="2" fill="white"/>
  <circle cx="50" cy="32" r="2" fill="white"/>
  <circle cx="75" cy="37" r="2" fill="white"/>
</svg>