<svg id="Layer_1" data-name="Layer 1" xmlns="http://www.w3.org/2000/svg" viewBox="0 0 800 800"><defs><style>.cls-1{fill:#d1d3d3;opacity:0.33;}.cls-2{fill:#fff;}</style></defs><rect class="cls-1" x="34.64" y="30.71" width="728.13" height="738.58" rx="57.48"/><rect class="cls-2" x="397.7" y="368.27" width="20.16" height="20.16"/><path class="cls-2" d="M656.71,388.43,407.78,134.56l-87.68,89.6v-39H243.81V301.76l-85,86.67h50.29V634.64H372V527.41a35.78,35.78,0,0,1,71.56,0v87.18H407.78v20.15H606.42V388.43ZM586.26,614.48H463.71V527.31a55.94,55.94,0,1,0-111.87,0v87.17H229.29v-226H377.54V368.27H206.82L264,310V205.31h36v39.3l-20.16,20.56,14.42,14.11,113.58-116,201,205H438v20.16H586.26Z"/><path class="cls-2" d="M486.49,429.85v81.74H566V429.85Zm59.16,61.58h-39V450h39Z"/><path class="cls-2" d="M249.55,429.85v81.74h79.52V429.85Zm59.36,61.58h-39V450h39Z"/></svg>