<svg width="100" height="100" viewBox="0 0 100 100" fill="none" xmlns="http://www.w3.org/2000/svg">
  <rect width="100" height="100" rx="12" fill="white" fill-opacity="0.2"/>
  <circle cx="35" cy="35" r="12" fill="white" fill-opacity="0.8"/>
  <circle cx="35" cy="32" r="4" fill="#00796B"/>
  <path d="M27 43C27 39.6863 29.6863 37 33 37H37C40.3137 37 43 39.6863 43 43V45H27V43Z" fill="#00796B"/>
  <circle cx="65" cy="35" r="12" fill="white" fill-opacity="0.8"/>
  <circle cx="65" cy="32" r="4" fill="#00796B"/>
  <path d="M57 43C57 39.6863 59.6863 37 63 37H67C70.3137 37 73 39.6863 73 43V45H57V43Z" fill="#00796B"/>
  <path d="M45 40L55 40" stroke="white" stroke-width="3" stroke-linecap="round"/>
  <path d="M52 37L55 40L52 43" stroke="white" stroke-width="2" stroke-linecap="round" stroke-linejoin="round"/>
  <circle cx="50" cy="65" r="8" fill="#26A69A"/>
  <path d="M46 65L48 67L54 61" stroke="white" stroke-width="2" stroke-linecap="round" stroke-linejoin="round"/>
</svg>