<svg width="100" height="100" viewBox="0 0 100 100" fill="none" xmlns="http://www.w3.org/2000/svg">
  <rect width="100" height="100" rx="12" fill="white" fill-opacity="0.2"/>
  <rect x="20" y="30" width="25" height="25" rx="4" fill="white" fill-opacity="0.9"/>
  <rect x="55" y="30" width="25" height="25" rx="4" fill="white" fill-opacity="0.9"/>
  <rect x="20" y="60" width="25" height="25" rx="4" fill="white" fill-opacity="0.9"/>
  <rect x="55" y="60" width="25" height="25" rx="4" fill="white" fill-opacity="0.9"/>
  <circle cx="32" cy="42" r="6" fill="#43A047"/>
  <circle cx="67" cy="42" r="6" fill="#43A047"/>
  <circle cx="32" cy="72" r="6" fill="#43A047"/>
  <circle cx="67" cy="72" r="6" fill="#43A047"/>
  <path d="M29 42L31 44L35 40" stroke="white" stroke-width="1.5" stroke-linecap="round" stroke-linejoin="round"/>
  <path d="M64 42L66 44L70 40" stroke="white" stroke-width="1.5" stroke-linecap="round" stroke-linejoin="round"/>
  <path d="M29 72L31 74L35 70" stroke="white" stroke-width="1.5" stroke-linecap="round" stroke-linejoin="round"/>
  <path d="M64 72L66 74L70 70" stroke="white" stroke-width="1.5" stroke-linecap="round" stroke-linejoin="round"/>
  <rect x="35" y="15" width="30" height="8" rx="4" fill="white" fill-opacity="0.6"/>
  <text x="50" y="20" text-anchor="middle" fill="#2E7D32" font-size="6" font-weight="bold">BULK</text>
</svg>